<svg width="108" height="118" viewBox="0 0 108 118" fill="none" xmlns="http://www.w3.org/2000/svg">
<path d="M54.9062 0H36.382V6.52535C36.382 7.58571 35.6357 8.45576 34.7029 8.45576C33.77 8.45576 33.0237 7.58571 33.0237 6.52535V0H14.4995C6.50346 0 0 7.42258 0 16.5853V101.415C0 110.577 6.50346 118 14.4995 118H54.9062C62.9023 118 69.4057 110.577 69.4057 101.415V16.5853C69.4057 7.42258 62.9289 0 54.9062 0Z" fill="#160E4E"/>
<path d="M34.7029 8.45576C35.6358 8.45576 36.3821 7.58572 36.3821 6.52535V0H32.9971V6.52535C33.0237 7.58572 33.77 8.45576 34.7029 8.45576Z" fill="#F6BC00"/>
<path d="M69.4057 19.3313H0V97.7714H69.4057V19.3313Z" fill="#4FAA99"/>
<path d="M42.1924 109.055H29.1322C28.146 109.055 27.3464 108.239 27.3464 107.233V107.016C27.3464 106.01 28.146 105.194 29.1322 105.194H42.1924C43.1786 105.194 43.9782 106.01 43.9782 107.016V107.233C43.9782 108.239 43.1786 109.055 42.1924 109.055Z" fill="#F6BC00"/>
<path d="M103.229 50.6801H45.1244C42.4857 50.6801 40.3268 48.505 40.3268 45.7861V16.5036C40.3268 13.8119 42.4591 11.6096 45.1244 11.6096H103.229C105.868 11.6096 108.027 13.7847 108.027 16.5036V45.8133C108 48.505 105.868 50.6801 103.229 50.6801Z" fill="#FC6B57"/>
<path d="M50.7483 50.6802V57.9125C50.7483 59.435 52.3475 60.3866 53.6535 59.6525L69.4857 50.6802L63.9418 40.865L50.7483 50.6802Z" fill="#FC6B57"/>
<path d="M101.337 23.8176H47.7898C46.6703 23.8176 45.7908 22.8932 45.7908 21.7784C45.7908 20.6365 46.697 19.7393 47.7898 19.7393H101.337C102.456 19.7393 103.336 20.6637 103.336 21.7784C103.362 22.8932 102.456 23.8176 101.337 23.8176Z" fill="white"/>
<path d="M100.937 33.1433H47.3899C46.2704 33.1433 45.3909 32.2189 45.3909 31.1041C45.3909 29.9622 46.2971 29.0649 47.3899 29.0649H100.937C102.056 29.0649 102.936 29.9894 102.936 31.1041C102.962 32.2189 102.056 33.1433 100.937 33.1433Z" fill="white"/>
<path d="M101.337 42.2517H47.7898C46.6703 42.2517 45.7908 41.3273 45.7908 40.2125C45.7908 39.0706 46.697 38.1733 47.7898 38.1733H101.337C102.456 38.1733 103.336 39.0978 103.336 40.2125C103.362 41.3273 102.456 42.2517 101.337 42.2517Z" fill="white"/>
</svg>

