<svg width="148" height="125" viewBox="0 0 148 125" fill="none" xmlns="http://www.w3.org/2000/svg">
<path d="M0 83.6304C0 88.6095 4.03636 92.6665 8.99008 92.6665H123.568C128.521 92.6665 132.558 88.6095 132.558 83.6304V16.5969H0V83.6304Z" fill="#160E4E"/>
<path d="M123.568 0H8.99008C4.03636 0 0 4.05704 0 9.03614V16.597H132.558V9.03614C132.558 4.05704 128.521 0 123.568 0Z" fill="#4FAA99"/>
<path d="M117.85 29.6286H16.7264C15.5339 29.6286 14.5859 28.6758 14.5859 27.4771C14.5859 26.2785 15.5339 25.3257 16.7264 25.3257H117.85C119.042 25.3257 119.99 26.2785 119.99 27.4771C119.99 28.6758 119.042 29.6286 117.85 29.6286Z" fill="white"/>
<path d="M117.85 44.0742H16.7264C15.5339 44.0742 14.5859 43.1214 14.5859 41.9227C14.5859 40.724 15.5339 39.7712 16.7264 39.7712H117.85C119.042 39.7712 119.99 40.724 119.99 41.9227C119.99 43.1214 119.042 44.0742 117.85 44.0742Z" fill="white"/>
<path d="M117.85 58.3046H16.7264C15.5339 58.3046 14.5859 57.3518 14.5859 56.1532C14.5859 54.9545 15.5339 54.0017 16.7264 54.0017H117.85C119.042 54.0017 119.99 54.9545 119.99 56.1532C119.99 57.3518 119.042 58.3046 117.85 58.3046Z" fill="white"/>
<path d="M12.9653 11.6793C14.3163 11.6793 15.4116 10.5785 15.4116 9.22053C15.4116 7.86257 14.3163 6.76172 12.9653 6.76172C11.6142 6.76172 10.519 7.86257 10.519 9.22053C10.519 10.5785 11.6142 11.6793 12.9653 11.6793Z" fill="#F6BC00"/>
<path d="M20.7934 11.6793C22.1444 11.6793 23.2397 10.5785 23.2397 9.22053C23.2397 7.86257 22.1444 6.76172 20.7934 6.76172C19.4423 6.76172 18.3471 7.86257 18.3471 9.22053C18.3471 10.5785 19.4423 11.6793 20.7934 11.6793Z" fill="#160E4E"/>
<path d="M28.6521 11.6793C30.0031 11.6793 31.0983 10.5785 31.0983 9.22053C31.0983 7.86257 30.0031 6.76172 28.6521 6.76172C27.301 6.76172 26.2058 7.86257 26.2058 9.22053C26.2058 10.5785 27.301 11.6793 28.6521 11.6793Z" fill="#FC6B57"/>
<path d="M67.3033 119.498C67.3033 122.541 69.7496 125 72.7769 125H142.557C145.584 125 148.031 122.541 148.031 119.498V78.6821H67.3033V119.498Z" fill="#160E4E"/>
<path d="M142.526 68.5703H72.7769C69.7496 68.5703 67.3033 71.0291 67.3033 74.0719V78.6822H148.031V74.0719C148 71.0291 145.554 68.5703 142.526 68.5703Z" fill="#4FAA99"/>
<path d="M75.1926 75.7008C76.0201 75.7008 76.6909 75.0265 76.6909 74.1947C76.6909 73.363 76.0201 72.6887 75.1926 72.6887C74.365 72.6887 73.6942 73.363 73.6942 74.1947C73.6942 75.0265 74.365 75.7008 75.1926 75.7008Z" fill="#F6BC00"/>
<path d="M79.9322 75.7008C80.7598 75.7008 81.4306 75.0265 81.4306 74.1947C81.4306 73.363 80.7598 72.6887 79.9322 72.6887C79.1047 72.6887 78.4339 73.363 78.4339 74.1947C78.4339 75.0265 79.1047 75.7008 79.9322 75.7008Z" fill="#160E4E"/>
<path d="M84.7331 75.7008C85.5606 75.7008 86.2314 75.0265 86.2314 74.1947C86.2314 73.363 85.5606 72.6887 84.7331 72.6887C83.9055 72.6887 83.2347 73.363 83.2347 74.1947C83.2347 75.0265 83.9055 75.7008 84.7331 75.7008Z" fill="#FC6B57"/>
<path d="M99.2273 94.8795V108.802C99.2273 110.616 101.062 111.815 102.713 111.077L118.492 104.1C120.479 103.239 120.479 100.412 118.492 99.5205L102.713 92.5436C101.093 91.8674 99.2273 93.0661 99.2273 94.8795Z" fill="white"/>
<path d="M38.957 67.5867L48.4975 71.5823C49.7207 72.1048 51.0967 71.1827 51.0661 69.8304L50.8215 56.9216C50.7909 55.2926 48.8645 54.4935 47.7025 55.6L38.4066 64.5132C37.4281 65.466 37.7339 67.0949 38.957 67.5867Z" fill="#F6BC00"/>
<path d="M38.4678 81.9093C37.5504 81.5098 37.0917 80.434 37.4892 79.512L42.8405 66.6032C43.238 65.6812 44.3083 65.2201 45.2256 65.6197C46.143 66.0192 46.6016 67.095 46.2041 68.017L40.8529 80.9258C40.4859 81.8479 39.4157 82.2782 38.4678 81.9093Z" fill="#F6BC00"/>
</svg>
